<svg xmlns="http://www.w3.org/2000/svg" viewBox="0 0 140.68 39.02"><defs><style>.cls-1,.cls-6{fill:#182848;}.cls-1,.cls-2{stroke:#182848;}.cls-1,.cls-2,.cls-3{stroke-miterlimit:10;}.cls-2,.cls-3{fill:none;}.cls-3{stroke:#4b6cb7;}.cls-4{fill:#284472;}.cls-5{fill:#4b6cb7;}</style></defs><title>pitchboard _weblogo</title><g id="Camada_1" data-name="Camada 1"><path class="cls-1" d="M169.51,25.67l-13-7.5a1,1,0,0,0-1.52.88v15a1,1,0,0,0,1.52.88l13-7.5A1,1,0,0,0,169.51,25.67Z" transform="translate(-51.66 -7.5)"/><path class="cls-2" d="M141.37,8h46.3c2.39,0,3.84,3.27,2.54,5.75l-14,26.92a5.23,5.23,0,0,1-4.53,3.06H141.37" transform="translate(-51.66 -7.5)"/><path class="cls-3" d="M142.5,10.17h46.31c2.39,0,3.83,3.27,2.54,5.75l-14,26.92a5.24,5.24,0,0,1-4.54,3.06H142.5" transform="translate(-51.66 -7.5)"/><rect class="cls-4" x="76.57" y="17.52" width="17.76" height="1.65" rx="0.83" ry="0.83"/><rect class="cls-5" x="69.84" y="8.95" width="17.76" height="1.65" rx="0.83" ry="0.83"/><rect class="cls-6" x="73.29" y="26.72" width="17.76" height="1.65" rx="0.83" ry="0.83"/></g><g id="Camada_2" data-name="Camada 2"><path class="cls-6" d="M51.78,20.65c0-1.9-.06-3.43-.12-4.84h2.42l.12,2.54h.06a5.82,5.82,0,0,1,5.27-2.88c3.58,0,6.28,3,6.28,7.53,0,5.33-3.25,8-6.74,8a5.18,5.18,0,0,1-4.56-2.33h-.07v8H51.78Zm2.66,4a6.14,6.14,0,0,0,.13,1.1,4.15,4.15,0,0,0,4,3.15c2.85,0,4.5-2.32,4.5-5.72,0-3-1.56-5.52-4.41-5.52A4.3,4.3,0,0,0,54.63,21a4.53,4.53,0,0,0-.19,1.11Z" transform="translate(-51.66 -7.5)"/><path class="cls-6" d="M72.2,11.64a1.59,1.59,0,0,1-1.71,1.66,1.6,1.6,0,0,1-1.62-1.66A1.63,1.63,0,0,1,70.55,10,1.59,1.59,0,0,1,72.2,11.64Zm-3,19V15.81h2.7V30.63Z" transform="translate(-51.66 -7.5)"/><path class="cls-6" d="M79.61,11.55v4.26h3.86v2H79.61v8c0,1.84.53,2.88,2,2.88a6.14,6.14,0,0,0,1.56-.18l.12,2a6.7,6.7,0,0,1-2.39.37A3.74,3.74,0,0,1,78,29.8c-.76-.79-1-2.11-1-3.86V17.86h-2.3v-2H77V12.26Z" transform="translate(-51.66 -7.5)"/><path class="cls-6" d="M96.89,30.08a9.92,9.92,0,0,1-4.26.86c-4.47,0-7.38-3-7.38-7.57a7.53,7.53,0,0,1,8-7.87,9,9,0,0,1,3.74.77l-.62,2.08a6.2,6.2,0,0,0-3.12-.7c-3.4,0-5.24,2.51-5.24,5.6,0,3.43,2.21,5.54,5.15,5.54a7.8,7.8,0,0,0,3.31-.73Z" transform="translate(-51.66 -7.5)"/><path class="cls-6" d="M100,8.89h2.69v9.25h.06a5,5,0,0,1,1.93-1.9,5.57,5.57,0,0,1,2.76-.77c2,0,5.18,1.23,5.18,6.34v8.82H110V22.12c0-2.39-.89-4.41-3.43-4.41a3.87,3.87,0,0,0-3.61,2.69,3.16,3.16,0,0,0-.19,1.29v8.94H100Z" transform="translate(-51.66 -7.5)"/><path class="cls-5" d="M64.76,45.34a1.11,1.11,0,0,1,1.12-1.18,1.18,1.18,0,1,1-1.12,1.18Z" transform="translate(-51.66 -7.5)"/><path class="cls-5" d="M69,46.31c0-.61.07-1.53.07-2.34V33h1.63v5.7h0A3.38,3.38,0,0,1,73.79,37c2.25,0,3.84,1.87,3.82,4.63,0,3.24-2,4.85-4.06,4.85a3.26,3.26,0,0,1-3-1.7h-.05l-.08,1.49Zm1.7-3.63a2.89,2.89,0,0,0,.08.6,2.54,2.54,0,0,0,2.47,1.93c1.72,0,2.76-1.41,2.76-3.49,0-1.81-.94-3.37-2.7-3.37a2.62,2.62,0,0,0-2.51,2,3,3,0,0,0-.1.67Z" transform="translate(-51.66 -7.5)"/><path class="cls-5" d="M87.91,41.71a4.43,4.43,0,0,1-4.52,4.81A4.31,4.31,0,0,1,79,41.85c0-3,2-4.81,4.5-4.81S87.91,38.93,87.91,41.71Zm-7.2.09c0,2,1.14,3.48,2.75,3.48s2.76-1.48,2.76-3.52c0-1.54-.77-3.48-2.72-3.48S80.71,40.08,80.71,41.8Z" transform="translate(-51.66 -7.5)"/><path class="cls-5" d="M95,46.31l-.13-1.14h-.06a3.37,3.37,0,0,1-2.77,1.35,2.58,2.58,0,0,1-2.77-2.6c0-2.2,2-3.4,5.45-3.38v-.18a1.87,1.87,0,0,0-2.06-2.1,4.52,4.52,0,0,0-2.36.67l-.38-1.09a5.71,5.71,0,0,1,3-.8c2.78,0,3.45,1.89,3.45,3.71v3.39a12.89,12.89,0,0,0,.15,2.17Zm-.24-4.62c-1.8,0-3.84.28-3.84,2a1.45,1.45,0,0,0,1.55,1.57,2.26,2.26,0,0,0,2.19-1.51,1.66,1.66,0,0,0,.1-.53Z" transform="translate(-51.66 -7.5)"/><path class="cls-5" d="M99,40.08c0-1.07,0-2-.07-2.83h1.44l.06,1.78h.07A2.73,2.73,0,0,1,103,37a1.68,1.68,0,0,1,.47.06v1.55a2.29,2.29,0,0,0-.56-.06,2.32,2.32,0,0,0-2.21,2.12,4.44,4.44,0,0,0-.08.77v4.83H99Z" transform="translate(-51.66 -7.5)"/><path class="cls-5" d="M112.8,33V44c0,.81,0,1.73.07,2.34h-1.48l-.07-1.57h0a3.36,3.36,0,0,1-3.09,1.78c-2.19,0-3.88-1.85-3.88-4.61,0-3,1.86-4.87,4.07-4.87a3,3,0,0,1,2.73,1.39h0V33Zm-1.65,7.93a2.79,2.79,0,0,0-.08-.7,2.42,2.42,0,0,0-2.38-1.91c-1.7,0-2.71,1.5-2.71,3.51,0,1.83.9,3.35,2.68,3.35a2.47,2.47,0,0,0,2.41-2,2.66,2.66,0,0,0,.08-.71Z" transform="translate(-51.66 -7.5)"/></g></svg>