<svg id="Layer_1" data-name="Layer 1" xmlns="http://www.w3.org/2000/svg" viewBox="0 0 792.73 372"><defs><style>.cls-1{fill:#ff9100;}.cls-2{fill:#545863;}</style></defs><title>picthboard_logo</title><path class="cls-1" d="M318.67,404a17.5,17.5,0,0,0,3.87,10.27,15.84,15.84,0,0,0,13.13,6l118.78-4.4c8.95-.45,15.84-8.45,15.4-17.88s-8.06-16.7-17-16.25l-118.78,4.4C325.11,386.58,318.22,394.59,318.67,404Z" transform="translate(-252.27 -189)"/><path class="cls-1" d="M429.87,346.24a17.09,17.09,0,0,0-17.61-16.55l-143.43,5.69a17.09,17.09,0,1,0,1.05,34.16l143.44-5.7A17.08,17.08,0,0,0,429.87,346.24Z" transform="translate(-252.27 -189)"/><path class="cls-1" d="M458.35,431.32l-6.42.67,3.21,42.5a16.65,16.65,0,0,0,24.78,13.37L629.55,373.38c10.9-8.57,10.54-24-5.5-32.22L465.39,269.74a16.64,16.64,0,0,0-24.53,15.76l5.92,78.31,4.55-.47a34.17,34.17,0,1,1,7,68Z" transform="translate(-252.27 -189)"/><path class="cls-1" d="M735.12,203.78A18.57,18.57,0,0,0,717,189H353a18.53,18.53,0,0,0-18.5,18.12L322.64,317.5h13.08l11.74-109.3,0-.7A5.51,5.51,0,0,1,353,202H717a5.53,5.53,0,0,1,5.39,4.4,5.72,5.72,0,0,1,0,1.63L686.54,541.81l0,.69A5.51,5.51,0,0,1,681,548H317a5.53,5.53,0,0,1-5.39-4.4,5.72,5.72,0,0,1,0-1.63l12.19-107.39A32.26,32.26,0,0,1,311.55,427L298.67,540.58a18.06,18.06,0,0,0,.21,5.64A18.56,18.56,0,0,0,317,561H681a18.53,18.53,0,0,0,18.5-18.11l35.83-333.47A18.07,18.07,0,0,0,735.12,203.78Z" transform="translate(-252.27 -189)"/><path class="cls-2" d="M811.21,298.65A28.92,28.92,0,0,1,823.43,301a21.78,21.78,0,0,1,8.1,6.23,22.33,22.33,0,0,1,4.23,8.81,31.69,31.69,0,0,1,.35,10,31.31,31.31,0,0,1-3.17,10,29.92,29.92,0,0,1-6.57,8.64,32.52,32.52,0,0,1-9.81,6.05A34.39,34.39,0,0,1,803.7,353H784.78l-4,28.78H767.4L779,298.65Zm-5.87,41.94a17.08,17.08,0,0,0,6.87-1.3,18.89,18.89,0,0,0,5.23-3.29,15.26,15.26,0,0,0,3.52-4.58,16.67,16.67,0,0,0,1.65-5.16,17.07,17.07,0,0,0,.11-1.88,13.84,13.84,0,0,0-.35-3.18,10.9,10.9,0,0,0-2.23-4.58,11.53,11.53,0,0,0-4.35-3.17,13.57,13.57,0,0,0-5.87-1.17H790.54l-4,28.31Z" transform="translate(-252.27 -189)"/><path class="cls-2" d="M851,381.82H838.11l8.57-61h12.93Zm5.17-84.34a7.54,7.54,0,0,1,5.87,2.46,7,7,0,0,1,1.65,4.58,10.46,10.46,0,0,1-.12,1.53,10.11,10.11,0,0,1-3.35,6.11,9.33,9.33,0,0,1-6.4,2.47,7.21,7.21,0,0,1-5.76-2.47,6.73,6.73,0,0,1-1.64-4.58,10.68,10.68,0,0,1,.12-1.53,10.24,10.24,0,0,1,3.29-6.11A9.1,9.1,0,0,1,856.2,297.48Z" transform="translate(-252.27 -189)"/><path class="cls-2" d="M886.86,383h-2.23a23.22,23.22,0,0,1-7.93-1.29,14.3,14.3,0,0,1-5.94-3.94,15.94,15.94,0,0,1-3.4-6.75,19.5,19.5,0,0,1-.59-5.05,33.19,33.19,0,0,1,.35-4.58l8-55.56h11.75L885.68,321h11.63l-1.53,11.86H884.16l-4.23,28.43a16.1,16.1,0,0,0-.24,2.7,9.07,9.07,0,0,0,.47,3.06,6.63,6.63,0,0,0,2.64,3,9.83,9.83,0,0,0,4.12,1.23c1.6.16,3.3.24,5.11.24l-1.53,11.16A17.78,17.78,0,0,1,886.86,383Z" transform="translate(-252.27 -189)"/><path class="cls-2" d="M931,319.8a29.57,29.57,0,0,1,7.11.88,21.44,21.44,0,0,1,6.52,2.76,17.79,17.79,0,0,1,5.05,4.93,16.71,16.71,0,0,1,2.7,7.4l-12.33,4.46a7.69,7.69,0,0,0-3.76-5.93,14.72,14.72,0,0,0-6.93-1.94,17.51,17.51,0,0,0-4.23.53,13.16,13.16,0,0,0-3.82,1.59,11,11,0,0,0-2.88,2.58,7.1,7.1,0,0,0-1.41,3.53l-3,21.14a3.79,3.79,0,0,0-.12.94,6,6,0,0,0,.59,2.7,6.91,6.91,0,0,0,2.11,2.76,9.89,9.89,0,0,0,3.35,1.7,14,14,0,0,0,4.17.59,15.94,15.94,0,0,0,7.46-2.23,12.2,12.2,0,0,0,5.35-6.11L948.05,367a24.71,24.71,0,0,1-4.81,7.4,25.85,25.85,0,0,1-6.46,4.93,29.89,29.89,0,0,1-7.4,2.76,33.28,33.28,0,0,1-7.4.88,26.76,26.76,0,0,1-8.52-1.35,19.72,19.72,0,0,1-7.05-4.05,17.18,17.18,0,0,1-4.52-6.7,18.05,18.05,0,0,1-.94-6,24.51,24.51,0,0,1,.24-3.29l2.93-20.91a21.42,21.42,0,0,1,3.35-9.22,24.38,24.38,0,0,1,6.4-6.52,28.43,28.43,0,0,1,8.22-3.87A32,32,0,0,1,931,319.8Z" transform="translate(-252.27 -189)"/><path class="cls-2" d="M988.81,319.8a28.15,28.15,0,0,1,8.34,1.23,17.75,17.75,0,0,1,6.87,3.87,15.2,15.2,0,0,1,4.17,6.64,17,17,0,0,1,.94,5.87,30.83,30.83,0,0,1-.23,3.65l-5.52,40.76H990.57l5.53-40.18a12,12,0,0,0,.11-1.52,6.35,6.35,0,0,0-2.82-5.58,10.14,10.14,0,0,0-3.64-1.65,18,18,0,0,0-4.34-.53,24,24,0,0,0-5.47.65,16.48,16.48,0,0,0-4.87,1.94l-6.46,46.87H955.69l11.63-83.17h12.8l-3.29,23.49A32.75,32.75,0,0,1,988.81,319.8Z" transform="translate(-252.27 -189)"/><path class="cls-2" d="M799.23,421.33a25.73,25.73,0,0,1,8.52,1.41,20.84,20.84,0,0,1,7,4.05,16.75,16.75,0,0,1,4.53,6.52,17.93,17.93,0,0,1,.94,5.87,21.86,21.86,0,0,1-.24,3.17l-3,21.74a27,27,0,0,1-4,9.63,23.14,23.14,0,0,1-6.4,6.28,25.76,25.76,0,0,1-8.1,3.47,39.16,39.16,0,0,1-9.11,1,52,52,0,0,1-11.8-1.35,72.17,72.17,0,0,1-10.75-3.34L778,400.07h12.92l-3.4,23.73A28.86,28.86,0,0,1,799.23,421.33Zm-10.57,52.39h.94a22.33,22.33,0,0,0,4.76-.53,15,15,0,0,0,4.4-1.7,12,12,0,0,0,3.41-3,10,10,0,0,0,1.88-4.4l3.17-22.32a8.07,8.07,0,0,0-.82-4.23,8,8,0,0,0-2.59-2.88A12.74,12.74,0,0,0,800,433a17.42,17.42,0,0,0-4.53-.59,20.11,20.11,0,0,0-5,.65,17.45,17.45,0,0,0-4.52,1.82l-5.17,37.23a16.25,16.25,0,0,0,4,1.3A21.54,21.54,0,0,0,788.66,473.72Z" transform="translate(-252.27 -189)"/><path class="cls-2" d="M857.38,421.33a26.92,26.92,0,0,1,8.45,1.35,20.12,20.12,0,0,1,7.11,4,16.8,16.8,0,0,1,4.52,6.52,16.24,16.24,0,0,1,1.06,6,21.86,21.86,0,0,1-.24,3.17l-2.93,21.15a21.37,21.37,0,0,1-3.35,9.22,25.06,25.06,0,0,1-6.4,6.58,27.58,27.58,0,0,1-8.22,3.93,31.69,31.69,0,0,1-8.81,1.29,29.07,29.07,0,0,1-8.64-1.29,19.23,19.23,0,0,1-7.16-3.93,16.31,16.31,0,0,1-5.58-12.63,21.91,21.91,0,0,1,.23-3.17l2.94-21.15a20.85,20.85,0,0,1,3.35-9.16,25.44,25.44,0,0,1,6.4-6.52,28.33,28.33,0,0,1,8.28-4A31.27,31.27,0,0,1,857.38,421.33Zm-1.77,12.57a15.87,15.87,0,0,0-4.05.53,14.46,14.46,0,0,0-3.82,1.58,10.08,10.08,0,0,0-2.93,2.65,8.28,8.28,0,0,0-1.53,3.69l-2.82,20.56a7.74,7.74,0,0,0-.12,1.29,5,5,0,0,0,.59,2.47,7.12,7.12,0,0,0,2.17,2.94,10.13,10.13,0,0,0,3.41,1.76,13.52,13.52,0,0,0,3.93.59,14.12,14.12,0,0,0,7.64-2.35,11,11,0,0,0,2.94-2.88,9.34,9.34,0,0,0,1.52-3.82l2.82-20.56a5.81,5.81,0,0,0,.12-1.17,5,5,0,0,0-.59-2.47,7.63,7.63,0,0,0-2.23-2.7,10,10,0,0,0-3.29-1.58A13.55,13.55,0,0,0,855.61,433.9Z" transform="translate(-252.27 -189)"/><path class="cls-2" d="M904.24,484.52a21.28,21.28,0,0,1-7.75-1.41,17.94,17.94,0,0,1-6.34-4.11,16.43,16.43,0,0,1-4-6.57,17,17,0,0,1-.82-5.41,24.37,24.37,0,0,1,.23-3.29l3.06-21.14a23.72,23.72,0,0,1,3.52-10,22.91,22.91,0,0,1,6.58-6.58,25.93,25.93,0,0,1,8.63-3.58,44.26,44.26,0,0,1,9.69-1.06,45,45,0,0,1,11.46,1.53,51.79,51.79,0,0,1,10.39,3.87L931,483.35H920.57l-.94-5.29a21.09,21.09,0,0,1-7.4,4.94A22.4,22.4,0,0,1,904.24,484.52Zm12.45-52.15a25.11,25.11,0,0,0-5.11.53,15.44,15.44,0,0,0-4.64,1.76,12.83,12.83,0,0,0-3.64,3.17,9.34,9.34,0,0,0-1.88,4.64l-3,21.26a10.68,10.68,0,0,0-.12,1.53,5.29,5.29,0,0,0,.47,2.35,6,6,0,0,0,1.88,2.7,8.71,8.71,0,0,0,3.11,1.59,14.21,14.21,0,0,0,3.94.53h.7a20.9,20.9,0,0,0,6.11-.94,19.11,19.11,0,0,0,5.76-2.82l4.93-34.3a14.39,14.39,0,0,0-3.88-1.47A19.92,19.92,0,0,0,916.69,432.37Z" transform="translate(-252.27 -189)"/><path class="cls-2" d="M976.36,421.33c1,0,2.08,0,3.17.12a23.69,23.69,0,0,1,3.64.58l-1.64,11.4a16.31,16.31,0,0,0-4.58-.59h-.82a17.29,17.29,0,0,0-5.82,1.23,14,14,0,0,0-4.81,3.23,9.25,9.25,0,0,0-2.53,5.17l-5.76,40.88H944.29l5.76-41.11a23.3,23.3,0,0,1,4.76-11.4,21.9,21.9,0,0,1,9.1-6.93,28.83,28.83,0,0,1,7.52-2.11A48,48,0,0,1,976.36,421.33Z" transform="translate(-252.27 -189)"/><path class="cls-2" d="M1006.2,484.52a36.18,36.18,0,0,1-8.87-1,20.26,20.26,0,0,1-7.29-3.41,14.75,14.75,0,0,1-4.75-6.34,18.75,18.75,0,0,1-1.41-7.64,17.65,17.65,0,0,1,.12-2l3-21.74a21.14,21.14,0,0,1,3.29-8.92,25.72,25.72,0,0,1,6.28-6.58,28.14,28.14,0,0,1,8.17-4.11,29.45,29.45,0,0,1,8.92-1.41,24.25,24.25,0,0,1,11,2.47l3.41-23.73h12.92l-11.16,79.76a87.22,87.22,0,0,1-11.57,3.34A56.68,56.68,0,0,1,1006.2,484.52Zm8.45-52.15h-.82a21.47,21.47,0,0,0-4.46.71,14.79,14.79,0,0,0-4.11,1.76,12.38,12.38,0,0,0-3.23,2.88,10.45,10.45,0,0,0-1.94,4l-3.17,22.32v1.05a8,8,0,0,0,.7,3.41,8.59,8.59,0,0,0,2.59,2.94,10.83,10.83,0,0,0,3.87,1.7,20,20,0,0,0,4.58.53h1.06a21.54,21.54,0,0,0,3.88-.35,23.41,23.41,0,0,0,4.46-1.3l5.17-37.23a15.13,15.13,0,0,0-4.23-2A20.2,20.2,0,0,0,1014.65,432.37Z" transform="translate(-252.27 -189)"/><circle class="cls-1" cx="781.73" cy="176" r="11"/></svg>