<svg xmlns="http://www.w3.org/2000/svg" viewBox="0 0 230 54"><defs><style>.cls-1,.cls-2{fill:none;stroke-miterlimit:10;}.cls-1{stroke:#182848;}.cls-2{stroke:#4b6cb7;}.cls-3{fill:#284472;}.cls-4,.cls-8{fill:#4b6cb7;}.cls-5,.cls-6{fill:#182848;}.cls-6{font-size:30.62px;}.cls-6,.cls-8{font-family:MyriadPro-Regular, Myriad Pro;}.cls-7{letter-spacing:-0.01em;}.cls-8{font-size:18.75px;}.cls-9{letter-spacing:-0.01em;}</style></defs><title>Prancheta 1</title><g id="Camada_1" data-name="Camada 1"><path class="cls-1" d="M169.51,25.67l-13-7.5a1,1,0,0,0-1.52.88v15a1,1,0,0,0,1.52.88l13-7.5A1,1,0,0,0,169.51,25.67Z"/><path class="cls-1" d="M141.37,8h46.3c2.39,0,3.84,3.27,2.54,5.75l-14,26.92a5.23,5.23,0,0,1-4.53,3.06H141.37"/><path class="cls-2" d="M142.5,10.17h46.31c2.39,0,3.83,3.27,2.54,5.75l-14,26.92a5.24,5.24,0,0,1-4.54,3.06H142.5"/><rect class="cls-3" x="128.23" y="25.02" width="17.76" height="1.65" rx="0.83" ry="0.83"/><rect class="cls-4" x="121.5" y="16.45" width="17.76" height="1.65" rx="0.83" ry="0.83"/><rect class="cls-5" x="124.95" y="34.22" width="17.76" height="1.65" rx="0.83" ry="0.83"/></g><g id="Camada_2" data-name="Camada 2"><text class="cls-6" transform="translate(49.54 30.63)">pi<tspan class="cls-7" x="24.59" y="0">t</tspan><tspan x="34.54" y="0">ch</tspan></text><text class="cls-8" transform="translate(63.78 46.31)">.boa<tspan class="cls-9" x="33.87" y="0">r</tspan><tspan x="39.81" y="0">d</tspan></text></g></svg>